<?xml version="1.0" encoding="utf-8"?>
<!-- Generator: Adobe Illustrator 15.0.0, SVG Export Plug-In . SVG Version: 6.00 Build 0)  -->
<!DOCTYPE svg PUBLIC "-//W3C//DTD SVG 1.1//EN" "http://www.w3.org/Graphics/SVG/1.1/DTD/svg11.dtd">
<svg version="1.1" id="Warstwa_1" xmlns="http://www.w3.org/2000/svg" xmlns:xlink="http://www.w3.org/1999/xlink" x="0px" y="0px"
	 width="225px" height="70px" viewBox="0 0 225 70" enable-background="new 0 0 225 70" xml:space="preserve">
<g>
	<g>
		<path fill="#D85E3F" d="M66.643,35c0,17.946-14.555,32.5-32.483,32.5C16.226,67.5,1.674,52.946,1.674,35
			c0-17.948,14.552-32.5,32.485-32.5C52.088,2.5,66.643,17.052,66.643,35z"/>
		<g>
			<path fill="#FFFFFF" d="M40.964,35.48h2.233v13.766c0,2.433-0.215,4.215-0.638,5.339c-0.588,1.597-1.602,2.825-3.047,3.684
				c-1.448,0.863-3.184,1.294-5.212,1.294c-1.481,0-2.811-0.211-3.994-0.631c-1.186-0.422-2.151-0.987-2.896-1.695
				c-0.744-0.711-1.431-1.747-2.058-3.114h2.424c0.66,1.149,1.511,2,2.557,2.553c1.041,0.553,2.329,0.829,3.863,0.829
				c1.517,0,2.802-0.283,3.852-0.848c1.049-0.569,1.797-1.283,2.244-2.139c0.445-0.861,0.671-2.245,0.671-4.159v-0.893
				c-0.842,1.065-1.868,1.879-3.083,2.448c-1.213,0.571-2.5,0.853-3.855,0.853c-1.589,0-3.084-0.395-4.488-1.188
				c-1.406-0.792-2.492-1.859-3.259-3.191c-0.766-1.333-1.148-2.797-1.148-4.396c0-1.597,0.398-3.087,1.197-4.469
				c0.798-1.379,1.903-2.474,3.313-3.277c1.409-0.808,2.891-1.212,4.448-1.212c1.292,0,2.503,0.271,3.625,0.805
				c1.124,0.536,2.205,1.419,3.25,2.645V35.48z M34.381,37.183c-1.259,0-2.429,0.304-3.509,0.914
				c-1.084,0.607-1.935,1.446-2.551,2.523c-0.617,1.074-0.925,2.233-0.925,3.481c0,1.896,0.638,3.46,1.915,4.699
				c1.275,1.237,2.922,1.861,4.945,1.861c2.045,0,3.696-0.617,4.946-1.847c1.249-1.228,1.873-2.841,1.873-4.838
				c0-1.305-0.286-2.466-0.862-3.485c-0.574-1.021-1.387-1.828-2.439-2.419C36.72,37.479,35.588,37.183,34.381,37.183z"/>
			<path fill="#FFFFFF" d="M40.964,35.677h2.233V20.757c0-2.437-0.215-4.217-0.638-5.345c-0.588-1.594-1.602-2.823-3.047-3.682
				c-1.448-0.863-3.184-1.294-5.212-1.294c-1.481,0-2.811,0.213-3.994,0.632c-1.186,0.422-2.151,0.987-2.896,1.695
				c-0.744,0.711-1.431,1.747-2.057,3.114h2.424c0.659-1.148,1.511-1.999,2.556-2.552c1.041-0.553,2.329-0.829,3.863-0.829
				c1.517,0,2.802,0.281,3.852,0.847c1.049,0.568,1.797,1.282,2.244,2.139c0.445,0.86,0.671,2.245,0.671,4.16v0.893
				c-0.842-1.066-1.868-1.88-3.083-2.448c-1.213-0.571-2.5-0.854-3.855-0.854c-1.589,0-3.084,0.395-4.488,1.188
				c-1.407,0.793-2.49,1.86-3.259,3.2c-0.767,1.339-1.149,2.811-1.149,4.417c0,1.605,0.399,3.103,1.198,4.491
				c0.798,1.385,1.903,2.486,3.313,3.293c1.409,0.808,2.891,1.212,4.448,1.212c1.292,0,2.503-0.271,3.625-0.805
				c1.124-0.538,2.205-1.425,3.25-2.656V35.677z M34.381,32.879c-1.259,0-2.429-0.307-3.509-0.917
				c-1.084-0.61-1.935-1.455-2.552-2.536c-0.616-1.079-0.923-2.246-0.923-3.5c0-1.905,0.638-3.476,1.915-4.722
				c1.275-1.242,2.922-1.866,4.945-1.866c2.045,0,3.696,0.618,4.946,1.851c1.249,1.234,1.873,2.856,1.873,4.864
				c0,1.31-0.286,2.476-0.862,3.5c-0.574,1.027-1.387,1.837-2.439,2.434C36.72,32.582,35.588,32.879,34.381,32.879z"/>
		</g>
	</g>
	<g>
		<path fill="#FFFFFF" d="M82.337,14.385l9.331,20.007h-2.16l-3.146-6.583h-8.621l-3.117,6.583h-2.231l9.454-20.007H82.337z
			 M82.084,18.635l-3.429,7.243h6.842L82.084,18.635z"/>
		<path fill="#FFFFFF" d="M94.172,13.88h1.904v20.512h-1.904V13.88z"/>
		<path fill="#FFFFFF" d="M112.492,29.483l1.604,0.843c-0.525,1.034-1.134,1.868-1.824,2.502c-0.689,0.635-1.465,1.119-2.327,1.448
			c-0.863,0.331-1.839,0.496-2.928,0.496c-2.414,0-4.302-0.79-5.664-2.373c-1.36-1.582-2.041-3.371-2.041-5.366
			c0-1.877,0.575-3.55,1.728-5.02c1.462-1.868,3.418-2.802,5.869-2.802c2.523,0,4.537,0.958,6.044,2.871
			c1.072,1.351,1.616,3.038,1.634,5.061h-13.316c0.036,1.719,0.585,3.127,1.647,4.227c1.062,1.099,2.374,1.649,3.937,1.649
			c0.753,0,1.485-0.13,2.199-0.394c0.713-0.261,1.317-0.608,1.818-1.042C111.37,31.148,111.911,30.449,112.492,29.483z
			 M112.492,25.497c-0.254-1.016-0.624-1.827-1.109-2.434c-0.486-0.607-1.129-1.097-1.927-1.469c-0.8-0.372-1.641-0.558-2.52-0.558
			c-1.454,0-2.702,0.468-3.745,1.402c-0.763,0.68-1.34,1.7-1.731,3.06H112.492z"/>
		<path fill="#FFFFFF" d="M118.125,13.88h1.904v11.687l6.861-5.974h2.795l-8.133,7.06l8.609,7.739h-2.68l-7.453-6.662v6.662h-1.904
			V13.88z"/>
		<path fill="#FFFFFF" d="M139.563,21.212l-1.226,1.265c-1.019-0.989-2.014-1.482-2.986-1.482c-0.618,0-1.148,0.204-1.588,0.611
			c-0.442,0.408-0.663,0.885-0.663,1.429c0,0.481,0.183,0.938,0.546,1.373c0.362,0.444,1.127,0.967,2.29,1.565
			c1.417,0.735,2.381,1.442,2.89,2.123c0.5,0.689,0.749,1.463,0.749,2.325c0,1.215-0.428,2.245-1.28,3.088
			c-0.854,0.843-1.921,1.264-3.201,1.264c-0.854,0-1.669-0.185-2.445-0.557c-0.777-0.372-1.419-0.885-1.928-1.538l1.196-1.36
			c0.973,1.097,2.005,1.646,3.097,1.646c0.763,0,1.411-0.245,1.949-0.734c0.534-0.49,0.805-1.066,0.805-1.729
			c0-0.543-0.178-1.028-0.532-1.454c-0.354-0.417-1.155-0.943-2.399-1.578c-1.336-0.689-2.245-1.37-2.726-2.04
			c-0.481-0.671-0.724-1.438-0.724-2.3c0-1.125,0.384-2.058,1.152-2.802c0.767-0.744,1.737-1.116,2.908-1.116
			C136.81,19.212,138.181,19.879,139.563,21.212z"/>
		<path fill="#FFFFFF" d="M157.68,19.593v14.799h-1.877V31.85c-0.798,0.97-1.693,1.699-2.687,2.189
			c-0.992,0.49-2.08,0.734-3.259,0.734c-2.093,0-3.882-0.759-5.365-2.278c-1.481-1.519-2.223-3.366-2.223-5.542
			c0-2.131,0.747-3.954,2.244-5.468c1.495-1.514,3.295-2.272,5.399-2.272c1.214,0,2.314,0.259,3.299,0.776
			c0.983,0.517,1.847,1.292,2.591,2.325v-2.72H157.68z M150.069,21.05c-1.061,0-2.038,0.26-2.935,0.781s-1.61,1.252-2.14,2.194
			c-0.53,0.942-0.795,1.938-0.795,2.989c0,1.041,0.268,2.038,0.802,2.988c0.534,0.952,1.252,1.692,2.152,2.222
			c0.901,0.53,1.87,0.795,2.902,0.795c1.041,0,2.028-0.263,2.961-0.789c0.933-0.525,1.65-1.236,2.153-2.133
			c0.502-0.896,0.755-1.906,0.755-3.029c0-1.711-0.564-3.143-1.692-4.293C153.106,21.625,151.718,21.05,150.069,21.05z"/>
		<path fill="#FFFFFF" d="M161.964,19.593h1.904v2.653c0.762-1.016,1.604-1.776,2.529-2.279c0.926-0.504,1.932-0.755,3.021-0.755
			c1.105,0,2.088,0.281,2.944,0.844c0.857,0.562,1.489,1.32,1.898,2.272c0.408,0.952,0.612,2.434,0.612,4.447v7.617h-1.904v-7.058
			c0-1.705-0.071-2.844-0.213-3.416c-0.221-0.979-0.644-1.714-1.27-2.21c-0.626-0.493-1.441-0.741-2.447-0.741
			c-1.154,0-2.185,0.381-3.097,1.143c-0.911,0.762-1.513,1.705-1.803,2.829c-0.181,0.735-0.271,2.077-0.271,4.026v5.426h-1.904
			V19.593z"/>
		<path fill="#FFFFFF" d="M193.726,13.88v20.512h-1.877V31.85c-0.799,0.97-1.693,1.699-2.687,2.189
			c-0.993,0.49-2.079,0.734-3.258,0.734c-2.095,0-3.883-0.759-5.366-2.278c-1.482-1.519-2.225-3.366-2.225-5.542
			c0-2.131,0.749-3.954,2.245-5.468s3.295-2.272,5.4-2.272c1.215,0,2.314,0.259,3.299,0.776c0.983,0.517,1.848,1.292,2.591,2.325
			V13.88H193.726z M186.115,21.05c-1.06,0-2.038,0.26-2.935,0.781s-1.61,1.252-2.141,2.194s-0.794,1.938-0.794,2.989
			c0,1.041,0.267,2.038,0.801,2.988c0.535,0.952,1.253,1.692,2.152,2.222c0.902,0.53,1.87,0.795,2.902,0.795
			c1.042,0,2.028-0.263,2.961-0.789c0.934-0.525,1.65-1.236,2.153-2.133c0.503-0.896,0.755-1.906,0.755-3.029
			c0-1.711-0.564-3.143-1.69-4.293C189.151,21.625,187.765,21.05,186.115,21.05z"/>
		<path fill="#FFFFFF" d="M210.496,29.483l1.604,0.843c-0.525,1.034-1.134,1.868-1.823,2.502c-0.69,0.635-1.467,1.119-2.327,1.448
			c-0.864,0.331-1.839,0.496-2.929,0.496c-2.415,0-4.303-0.79-5.663-2.373c-1.362-1.582-2.044-3.371-2.044-5.366
			c0-1.877,0.577-3.55,1.729-5.02c1.461-1.868,3.418-2.802,5.869-2.802c2.522,0,4.538,0.958,6.044,2.871
			c1.072,1.351,1.615,3.038,1.634,5.061h-13.316c0.036,1.719,0.585,3.127,1.647,4.227c1.063,1.099,2.375,1.649,3.937,1.649
			c0.753,0,1.485-0.13,2.198-0.394c0.714-0.261,1.318-0.608,1.819-1.042C209.374,31.148,209.915,30.449,210.496,29.483z
			 M210.496,25.497c-0.254-1.016-0.624-1.827-1.109-2.434c-0.486-0.607-1.129-1.097-1.927-1.469
			c-0.799-0.372-1.641-0.558-2.52-0.558c-1.453,0-2.701,0.468-3.745,1.402c-0.764,0.68-1.34,1.7-1.729,3.06H210.496z"/>
		<path fill="#FFFFFF" d="M215.421,19.593h1.944v2.164c0.579-0.853,1.19-1.49,1.835-1.912c0.644-0.421,1.315-0.632,2.014-0.632
			c0.525,0,1.087,0.168,1.687,0.504l-0.992,1.604c-0.399-0.172-0.734-0.259-1.007-0.259c-0.635,0-1.248,0.262-1.836,0.783
			c-0.591,0.522-1.039,1.331-1.347,2.428c-0.236,0.843-0.354,2.548-0.354,5.115v5.005h-1.944V19.593z"/>
		<path fill="#FFFFFF" d="M93.463,38.968l-1.55,1.469c-1.116-1.096-2.337-1.929-3.666-2.496c-1.328-0.565-2.623-0.85-3.884-0.85
			c-1.568,0-3.063,0.386-4.481,1.157c-1.42,0.771-2.52,1.816-3.3,3.134c-0.779,1.319-1.168,2.715-1.168,4.185
			c0,1.505,0.402,2.937,1.21,4.291c0.807,1.355,1.922,2.419,3.346,3.197c1.425,0.774,2.983,1.162,4.68,1.162
			c2.059,0,3.799-0.581,5.223-1.741c1.425-1.161,2.268-2.666,2.531-4.516h-6.38v-1.932h8.623c-0.019,3.093-0.936,5.547-2.754,7.366
			c-1.817,1.818-4.25,2.726-7.297,2.726c-3.701,0-6.629-1.26-8.787-3.78c-1.66-1.941-2.49-4.185-2.49-6.733
			c0-1.895,0.477-3.658,1.429-5.291s2.258-2.909,3.918-3.829c1.658-0.92,3.536-1.381,5.631-1.381c1.696,0,3.291,0.306,4.787,0.918
			C90.58,36.635,92.04,37.616,93.463,38.968z"/>
		<path fill="#FFFFFF" d="M105.146,40.437c2.281,0,4.171,0.827,5.669,2.478c1.363,1.505,2.045,3.287,2.045,5.345
			c0,2.068-0.72,3.874-2.159,5.42c-1.44,1.547-3.293,2.319-5.555,2.319c-2.27,0-4.126-0.772-5.564-2.319
			c-1.441-1.546-2.161-3.352-2.161-5.42c0-2.05,0.682-3.827,2.045-5.332C100.964,41.268,102.857,40.437,105.146,40.437z
			 M105.141,42.301c-1.583,0-2.942,0.584-4.081,1.756c-1.137,1.169-1.706,2.583-1.706,4.243c0,1.07,0.26,2.068,0.777,2.993
			c0.519,0.925,1.22,1.638,2.103,2.143c0.882,0.503,1.851,0.754,2.907,0.754s2.025-0.251,2.908-0.754
			c0.882-0.505,1.583-1.218,2.102-2.143s0.778-1.923,0.778-2.993c0-1.66-0.571-3.074-1.714-4.243
			C108.073,42.885,106.715,42.301,105.141,42.301z"/>
		<path fill="#FFFFFF" d="M115.663,40.817h1.944v2.164c0.581-0.853,1.192-1.49,1.837-1.912c0.643-0.42,1.313-0.633,2.012-0.633
			c0.527,0,1.089,0.169,1.688,0.504l-0.992,1.605c-0.399-0.172-0.735-0.259-1.007-0.259c-0.635,0-1.248,0.261-1.836,0.782
			c-0.59,0.522-1.039,1.332-1.347,2.428c-0.235,0.845-0.354,2.549-0.354,5.114v5.006h-1.944V40.817z"/>
		<path fill="#FFFFFF" d="M137.222,50.708l1.605,0.843c-0.526,1.033-1.135,1.868-1.823,2.503c-0.691,0.635-1.467,1.118-2.328,1.449
			c-0.863,0.328-1.838,0.495-2.928,0.495c-2.415,0-4.303-0.79-5.664-2.373c-1.361-1.582-2.042-3.371-2.042-5.366
			c0-1.877,0.575-3.55,1.729-5.018c1.461-1.869,3.417-2.805,5.868-2.805c2.523,0,4.538,0.958,6.045,2.871
			c1.071,1.352,1.615,3.038,1.633,5.06h-13.314c0.034,1.72,0.583,3.127,1.646,4.227c1.063,1.101,2.375,1.65,3.938,1.65
			c0.752,0,1.485-0.131,2.198-0.395c0.713-0.262,1.318-0.608,1.818-1.042C136.1,52.373,136.641,51.674,137.222,50.708z
			 M137.222,46.723c-0.254-1.016-0.624-1.828-1.109-2.436s-1.129-1.098-1.927-1.469c-0.799-0.372-1.641-0.558-2.52-0.558
			c-1.453,0-2.7,0.467-3.745,1.401c-0.763,0.68-1.34,1.7-1.73,3.061H137.222z"/>
		<path fill="#FFFFFF" d="M157.23,43.894l-1.51,0.938c-1.304-1.732-3.084-2.599-5.34-2.599c-1.803,0-3.3,0.581-4.489,1.74
			c-1.192,1.159-1.788,2.567-1.788,4.224c0,1.079,0.274,2.094,0.822,3.044c0.548,0.951,1.3,1.69,2.256,2.216
			c0.955,0.524,2.026,0.788,3.213,0.788c2.174,0,3.949-0.866,5.326-2.6l1.51,0.994c-0.708,1.066-1.657,1.893-2.851,2.478
			c-1.191,0.588-2.55,0.882-4.073,0.882c-2.34,0-4.281-0.743-5.822-2.231c-1.541-1.487-2.312-3.295-2.312-5.426
			c0-1.434,0.36-2.764,1.081-3.992c0.722-1.229,1.711-2.188,2.972-2.878c1.26-0.688,2.672-1.034,4.231-1.034
			c0.979,0,1.925,0.15,2.835,0.45c0.912,0.3,1.684,0.688,2.32,1.17C156.245,42.537,156.786,43.149,157.23,43.894z"/>
		<path fill="#FFFFFF" d="M160.877,35.105h1.904v11.686l6.86-5.974h2.796l-8.133,7.061l8.609,7.739h-2.681l-7.452-6.663v6.663
			h-1.904V35.105z"/>
		<path fill="#FFFFFF" d="M175.532,34.724c0.434,0,0.805,0.154,1.11,0.462c0.308,0.308,0.461,0.68,0.461,1.115
			c0,0.426-0.153,0.794-0.461,1.103c-0.306,0.309-0.677,0.463-1.11,0.463c-0.423,0-0.79-0.154-1.097-0.463
			c-0.308-0.309-0.461-0.677-0.461-1.103c0-0.435,0.153-0.807,0.461-1.115C174.742,34.878,175.109,34.724,175.532,34.724z
			 M174.588,40.817h1.904v14.8h-1.904V40.817z"/>
	</g>
</g>
<text transform="matrix(1 0 0 1 15 -137.2007)"><tspan x="0" y="0" fill="#FFFFFF" font-family="'CenturyGothic'" font-size="21">Aleksander</tspan><tspan x="0" y="16" fill="#FFFFFF" font-family="'CenturyGothic'" font-size="21">Gorecki</tspan></text>
</svg>
